<svg width="43" height="31" fill="none" xmlns="http://www.w3.org/2000/svg"><path fill-rule="evenodd" clip-rule="evenodd" d="M23.415 4.853c-.58-2.39-3.979-2.39-4.559 0a2.345 2.345 0 01-3.5 1.45c-2.1-1.28-4.502 1.123-3.223 3.223a2.345 2.345 0 01-1.45 3.5c-2.389.58-2.389 3.978 0 4.558a2.346 2.346 0 011.45 3.5c-1.28 2.1 1.124 4.503 3.224 3.223a2.345 2.345 0 013.5 1.45c.58 2.39 3.978 2.39 4.558 0a2.346 2.346 0 013.5-1.45c2.1 1.28 4.502-1.123 3.223-3.223a2.345 2.345 0 011.45-3.5c2.389-.58 2.389-3.978 0-4.558a2.345 2.345 0 01-1.45-3.5c1.28-2.1-1.124-4.503-3.224-3.223a2.346 2.346 0 01-3.5-1.45zm-2.28 15.044a4.591 4.591 0 100-9.183 4.591 4.591 0 000 9.183z" fill="#4089D7"/><g clip-path="url(#clip0)"><path d="M39.607 10.87c0 .953.213 1.633.638 2.04.442.41 1.182.613 2.22.613v2.806c-1.038 0-1.778.204-2.22.612-.425.408-.638 1.089-.638 2.041V22.4c0 1.072-.204 1.922-.612 2.55-.391.63-1.029 1.08-1.913 1.353-.884.289-2.066.433-3.546.433l-.127-2.754c.952 0 1.64-.17 2.066-.51.442-.324.663-.85.663-1.582v-3.826c0-.834.213-1.505.638-2.015.442-.51 1.088-.885 1.939-1.123-.868-.255-1.514-.63-1.94-1.122-.424-.51-.637-1.19-.637-2.04V7.91c0-.731-.22-1.258-.663-1.581-.425-.323-1.114-.485-2.066-.485l.127-2.755c1.48 0 2.662.145 3.546.434.884.289 1.522.748 1.913 1.377.408.63.612 1.471.612 2.526v3.443z" fill="#243B53"/></g><g clip-path="url(#clip1)"><path d="M3.393 19.011c0-.952-.213-1.632-.638-2.04-.442-.409-1.182-.613-2.22-.613v-2.806c1.038 0 1.778-.204 2.22-.612.425-.408.638-1.088.638-2.04V7.48c0-1.071.204-1.921.612-2.55.391-.63 1.029-1.08 1.913-1.353.884-.289 2.066-.433 3.546-.433L9.59 5.9c-.952 0-1.64.17-2.066.51-.442.323-.663.85-.663 1.581v3.827c0 .833-.213 1.505-.638 2.015-.442.51-1.088.884-1.939 1.122.868.255 1.514.63 1.94 1.123.424.51.637 1.19.637 2.04v3.852c0 .731.22 1.259.663 1.582.425.323 1.114.484 2.066.484l-.127 2.755c-1.48 0-2.662-.144-3.546-.433-.884-.29-1.522-.749-1.913-1.378-.408-.63-.612-1.47-.612-2.525V19.01z" fill="#243B53"/></g><defs><clipPath id="clip0"><path fill="#fff" d="M32.797 2.915H43v24.051H32.797z"/></clipPath><clipPath id="clip1"><path transform="rotate(-180 10.203 26.966)" fill="#fff" d="M10.203 26.966h10.203v24.051H10.203z"/></clipPath></defs></svg>